<svg id="Слой_1" data-name="Слой 1" xmlns="http://www.w3.org/2000/svg" viewBox="0 0 498.12 288.84"><defs><style>.cls-1{fill:#fcd6cb}.cls-2{fill:#f94431}.cls-3{fill:#f04f3d}.cls-4{fill:#ec5443}.cls-5{fill:#fbf4f1}.cls-6{fill:#ec5748}.cls-7{fill:#eb5c4c}.cls-8{fill:#e26256}.cls-9{fill:#fbcdc1}.cls-11{fill:#fbf9f8}.cls-12{fill:#f34a38}.cls-13{fill:#fbd0c4}.cls-14{fill:#f7eae7}</style></defs><path class="cls-1" d="M622.87 600.88c.42 11-2 21.71-3.25 32.53-.23 2-.59 3.91-.63 5.9-.12 5.41-1.25 6.16-6.63 5.59-15.93-1.69-31.81-3.83-47.8-5-10-.75-20-2.4-30-3.51-8-.9-16.12-1.61-24.18-2.38-10.53-1-21.09-1.7-31.52-3.54-5.39-.94-10.89-.27-16.33-1.31-2.77-.54-3.58-1.37-3.57-4 .05-8.47 2.87-16.69 2.1-25.22 3.74 1.27 7.09 1 9.95-2.12 3.54-3.82 1.69-12.63-7-12.8 1.65-6.72 1.68-13.71 2.48-20.51.86-7.22 3.39-14.27 2.69-21.77-.39-4.14-1.06-8.53.68-12.66.08 5.59.19 11.18.23 16.77 0 6.35 0 6.35 6.69 6 4.18 2.27 8.78.65 13.11 1.43 14.32 2.58 28.9 2.83 43.3 4.75 8.18 1.1 16.48 1.24 24.66 2.3 15.72 2 31.43 4.07 47.27 4.81 6.31 2 6.79 1.64 6.78-4.78v-32.29c0-2.07 0-2.07 1.2-2.61q-.06 16.92-.11 33.85c0 7.34 0 7.34 7.17 7.81s7.64 1.27 6.22 8.23c-.27 1.32-.71 2.6.53 3.67-1.11 3.41-2.94 5.62-7 5.52a6.09 6.09 0 00-5.25 3.28c-3.66 5.72-.14 10.95 8.21 12.06zm-41.13 11.6c-.38 2.28.2 4.11 2.76 4.34s3-1.72 3.3-3.59c.27-1.64.26-3.33.59-5 .21-1.06 0-2.59 1.44-2.9 1.74-.37 2.16 1.22 2.75 2.36 1.52 3 2.95 6 4.46 8.91.91 1.8 2.43 2.11 4.21 1.5 2.22-.77 1.93-2.54 1.35-4.12a21.26 21.26 0 00-2.35-4.38c-1.68-2.51-1.72-4.23 1.27-6 3.17-1.9 3.88-5.32 3.14-8.82a8.27 8.27 0 00-6.74-6.59c-2.91-.65-5.92-.8-8.89-1.2-3.17-.42-4.61 1.15-4.93 4.14-.77 7.14-1.58 14.24-2.36 21.35zm-76.73-9c.12 1.69-.79 4.32 2.55 4.6 3.52.31 3.4-2.29 3.51-4.67a16.51 16.51 0 01.39-3.45c.31-1.17 0-2.93 1.89-3.05 1.39-.09 1.9 1.17 2.42 2.2 1.5 2.95 3 5.94 4.46 8.89.87 1.71 2.34 2.52 4.11 1.73s2.18-2.39 1.35-4.18c-.7-1.5-1.42-3-2.23-4.44-1.33-2.38-1.78-4 1.24-6 4.72-3.16 4.53-10.51 0-13.72-4.28-3.06-9.45-2.79-14.36-3-2.12-.08-2.86 2.08-3.08 4-.76 6.9-1.47 13.82-2.26 21.08zm48.4-12.48c-.17-2.4-.45-4.89-2.76-6.52-4.5-3.17-9.79-2.81-14.88-3.1-1.53-.08-2.58 1.24-2.78 3-.84 7.77-1.75 15.53-2.61 23.3a2.71 2.71 0 002.3 3.31 2.75 2.75 0 003.42-2.15c.46-1.93.59-3.94.9-5.9.2-1.2-.36-2.86 1.62-3.12 1.7-.21 2.25 1.09 2.83 2.31a35 35 0 002.37 4.93c1.57 2.3 1.81 7.44 6.17 5.1 4-2.13.27-5.17-.81-7.65-1.17-2.67-2.48-5 1.39-6.82 2.43-1.17 2.67-4.04 2.84-6.69zm25.81 6.27c.06-8.23-3.18-12.34-10.46-13-5.84-.55-10.63 3.15-11.61 9.18a86 86 0 00-1 9.87c-.31 6.37 3.23 10.78 9.08 11.61 6.79 1 11.28-2.06 12.72-8.8.6-2.95.85-5.93 1.27-8.88zm-82-2.86c1.69.21 3.48.36 3.82-1.92.38-2.45-1.3-3.13-3.28-3.42-1-.14-2-.24-3-.37-2.24-.32-4.22-.64-3.67-3.88s2.57-2.94 4.79-2.69c1.31.14 2.62.45 3.94.5 1.78.07 3.46-.38 3.58-2.53.1-1.8-1.27-2.68-2.84-2.91-3.28-.47-6.59-.79-9.88-1.16-3-.34-4.61.84-4.94 4-.73 6.92-1.69 13.82-2.53 20.72-.27 2.17.18 4.33 2.54 4.75 4.07.72 8.22 1 12.35 1.36a2.49 2.49 0 002.86-2.2c.29-1.88-.79-2.78-2.47-3-2-.31-3.94-.56-5.92-.72-2.52-.21-2.71-1.82-2.7-3.86 0-2.38 1-3.32 3.35-3 1.38.14 2.71.2 4.03.31z" transform="translate(-287.04 -417.89)"/><path class="cls-2" d="M698.27 585h-31.48c-13.38-.05-18.53-7.62-13.31-19.76 8.41-19.54 16.95-39 25.42-58.52 10.1-23.35 20.18-46.72 30.36-69.98 3.91-8.92 13.94-10.76 20.89-4.05 3.69 3.57 4.39 7.8 2.41 12.34q-21.13 48.44-42.41 96.81c-2.6 5.93-5 11.93-7.82 17.78-1.38 2.92-1.24 4.13 2.39 4.11q24-.15 48 0c3.57 0 4-1.85 4-4.73-.07-15.16.56-30.35-.24-45.46-.64-12.21 12.28-16 19.83-11.44 4.19 2.56 5.63 6.24 5.62 10.9 0 15.16.13 30.32-.1 45.47-.07 4.22 1.27 5.64 5.38 5.28a40.17 40.17 0 019 .26 10.27 10.27 0 019 9.24c.37 5.32-2.3 9.19-7.45 11-3.74 1.29-7.61.88-11.39.7-3.57-.18-4.53 1.14-4.45 4.57.22 8.49.11 17 .06 25.48-.06 7.65-4.86 12.52-12.37 12.68-7.81.16-12.76-4.64-12.83-12.58-.06-8.32-.2-16.66.08-25 .13-3.9-1-5.26-5-5.17-11.27.2-22.43.07-33.59.07zM333.81 583.06c-11 0-22 .08-33 0-11.22-.1-16.65-7.84-12.28-18 16.37-38.18 33-76.27 49.46-114.39 2.38-5.49 4.74-11 7.13-16.46 2.81-6.42 9.66-9.07 16.22-6.3 7.08 3 9.5 8.71 6.43 15.76Q343 500.52 318.11 557.32c-1.47 3.34-1.6 4.63 2.71 4.58q23.48-.28 47 0c3.56 0 4.5-1.09 4.47-4.53-.14-15.49 0-31-.07-46.47 0-5.21 1.79-9.07 6.57-11.28 5.14-2.37 10-1.73 14.6 1.54 3.33 2.38 4.09 5.81 4.07 9.67-.06 15.16.12 30.32-.12 45.47-.07 4.35 1.12 6.1 5.61 5.59a42.22 42.22 0 018.48.13c4.87.45 9.2 4.81 9.57 9.35.39 4.95-2.71 9.28-7.69 10.91-3.91 1.28-7.93.8-11.9.72-3.08-.07-4.06 1.08-4 4.08.14 8.49.08 17 0 25.48s-4.77 13.26-12.73 13.17c-7.71-.08-12.37-5-12.42-13.08s-.23-16 .06-24c.16-4.27-1-5.84-5.51-5.71-11 .34-22 .12-33 .12z" transform="translate(-287.04 -417.89)"/><path class="cls-3" d="M476.77 552.76c-6.69.38-6.66.38-6.69-6 0-5.59-.15-11.18-.23-16.77v-1c-.1-1.17 1.27-2.72-.87-3.36-3 .31-3.56 3.29-5.11 5-14.34 16-16.87 34.8-7.82 51.94 2.21 4.19 4.35 4.75 7.95 2.38 8.69.17 10.54 9 7 12.8-2.86 3.08-6.21 3.39-9.95 2.12-8.38-13.23-17.14-26.32-14.66-43.24.26-1.79.47-3.6.71-5.4a10.85 10.85 0 001.82-5.24.64.64 0 00.19-.75c3.66-7.73 8.64-14.59 14-21.21a2.91 2.91 0 001.91-2c3.8-2 5.12-4.93 5.06-9.28-.23-17.46.36-34.94-.29-52.38-.34-9.16 1-16.65 9.65-21.29.4-.22.65-.74 1-1.11a.8.8 0 00.73-.59 64.55 64.55 0 0012.06-9.28v.05c2.9-1 5.05-3.13 7.43-4.88a12.58 12.58 0 017.89-2.44c31.82.07 63.65 0 95.47.05 7.23 0 8.07.84 8.07 8v84c0 1.74-.73 3.68.81 5.22v.07q6 6.57 12 13.15c4.86 7.77 9.36 15.6 10.52 25a44.3 44.3 0 01-5.17 27.45c-1.37 2.5-2.51 4.71-1.54 7.93 1.17 3.87-1.26 6.61-4.63 8.44a.86.86 0 00-1.13.68c-8.35-1.11-11.85-6.34-8.27-12.15a6.09 6.09 0 015.25-3.28c4.1.1 5.93-2.11 7-5.52a36.85 36.85 0 001.48-32.21c-3.33-8.24-7.56-16.12-15.29-21.35-1.17.54-1.2.54-1.2 2.61v32.29c0 6.42-.47 6.76-6.78 4.78v-6-127.94c0-2.43.37-4.47-3.37-4.45q-44.22.19-88.46 0c-2.8 0-3.85 1-3.81 3.76.11 6.66.05 13.32 0 20 0 6.44-.86 7.13-7.39 6.22-6.75-1-13.57-1.57-20.24-2.94-4.43-.91-5.22.4-5.19 4.58.19 31.24.1 62.39.09 93.54zm1.65-105.13l21 2.58c2.08.26 3.56 0 3.51-2.72-.1-5.57 0-11.15 0-17.91z" transform="translate(-287.04 -417.89)"/><path class="cls-4" d="M643.42 681.64c2.67-2 3.92-.39 5.3 1.83a103.15 103.15 0 0010.28 14.1v-13.31c0-1.54-.52-3.78 2.05-3.67 2.12.08 1.76 2.07 1.77 3.5v18.44c0 1.3.25 2.84-1.36 3.41-1.79.64-2.77-.64-3.61-1.92-3.23-5-6.42-9.95-10.1-15.65-1.27 4.67-.53 8.58-.69 12.42-.09 2.33-.09 4.58-3 5.16-.79-8.09.49-16.23-.64-24.31z" transform="translate(-287.04 -417.89)"/><path class="cls-5" d="M612.86 518.15c-1.54-1.54-.81-3.48-.81-5.22q-.09-42 0-84c0-7.18-.84-8-8.07-8-31.82 0-63.65 0-95.47-.05a12.58 12.58 0 00-7.89 2.44c-2.38 1.75-4.53 3.9-7.43 4.88.57-2.56 2.7-4.49 2.9-7.23.14-1.86 1.3-1.64 2.85-1.59 34.59 1.27 69.2.28 103.79.61a9.14 9.14 0 005.1-1.45c1.9-1.15 4-.75 5.86 1.06s.69 2.63-.1 4.19c-.69 1.36-.51 3.23-.51 4.87q-.15 44.75-.22 89.49z" transform="translate(-287.04 -417.89)"/><path class="cls-6" d="M541 693.63c0 10.14-3.65 13.79-12.42 12.4a7.27 7.27 0 01-1.92-.45c-4.29-1.91-5.39-5.66-5.32-9.86.08-5.17-1.39-11.12 4.45-14.28 6.83-3.69 15.16 1.52 15.21 9.2v2.99zm-3.88-.39h.06v-2c-.12-6.46-.78-7.25-6.05-7.25-4.88 0-6 1.38-6.06 7.35a46.49 46.49 0 00.1 6.47c.45 3.42 2.52 5.33 6.08 5.27s5.68-1.67 5.85-5.36c.1-1.48.04-2.98.04-4.48zM615.07 693.5c0 10.18-3.61 13.9-12.28 12.58-5.91-.91-7.91-5.32-7.31-16.19.35-6.29 2.51-8.63 8.23-8.93 9.42-.49 11.34 1.63 11.36 12.54zm-3.81 0v-4.48c-.08-3.44-1.71-5-5.29-5.09s-6.38.69-6.71 4.76a51.56 51.56 0 000 9c.34 3.72 2.73 5.59 6.43 5.45 3.48-.14 5.57-1.92 5.6-5.61-.02-1.38-.03-2.71-.03-4.04zM443 692.42c.45-3.52-1.32-8.57 4.53-10.68a14.35 14.35 0 019.42-.18c1.31.41 3 .85 2.54 2.27s-2 1.14-3.31.43a7.42 7.42 0 00-4.33-.87c-4.6.54-5.41 3-5.05 13.61.15 4.17 2.08 6.16 6.05 6.19 2 0 4.3-.14 4.25-3 0-2.22 1.25-5.38-3-5.4-1 0-2.17-.34-2.19-1.53 0-1.77 1.61-1.67 2.57-1.43 2.3.6 6-2 6.54 2.88.91 8.33-.25 10.72-5.75 11.31-9.52 1.04-12.33-1.92-12.27-13.6z" transform="translate(-287.04 -417.89)"/><path class="cls-4" d="M465.74 693.36v-3c-.05-9.76 3.11-12.16 12.85-9.78 1 .25 2.08.48 2.07 1.74s-1.21 1.42-2.17 1.48a33.64 33.64 0 01-4.49 0c-2.84-.18-4.72.22-4.67 3.9 0 3.47 1.56 4.4 4.58 4.1a1.6 1.6 0 01.49 0c1.8.4 5.11-1 5.11 1.28 0 3-3.4 1.61-5.27 1.62-3.18 0-4.94.69-4.92 4.42s2.33 3.52 4.93 3.82c2.24.26 6.39-1.56 6.38 1.2 0 3.64-4.21 1.16-6.49 1.77-1.09.28-2.33-.1-3.48 0-3.62.48-5.29-.85-5-4.67.26-2.55.08-5.24.08-7.88zM401.66 693.23a37.21 37.21 0 010-5.49c.38-2.4-1.54-6.18 2.09-6.85 4.64-.85 9.72-1.35 13.69 2.4 2.64 2.49 2.51 5.74 1.42 8.83-1.42 4-5.2 4.63-8.66 4.54-4.11-.11-5.27 1.5-4.93 5.29.13 1.39.95 3.88-1.56 3.95-2.86.08-1.91-2.59-2-4.19-.18-2.81-.05-5.65-.05-8.48zm3.6-4.84c-.15 3-.64 5.92 3.94 5.55 3.65-.3 6.82-1 6.74-5.4s-3.26-4.55-6.66-4.78c-3.89-.27-4.56 1.63-4.02 4.63z" transform="translate(-287.04 -417.89)"/><path class="cls-6" d="M422.89 696.77c1.55-4.54 3.07-9.09 4.65-13.62.43-1.25.93-2.68 2.52-2.74 1.79-.06 2.46 1.34 3 2.81 2.44 6.51 4.92 13 7.38 19.5.41 1.1.89 2.37-.44 3.08-1.09.58-2.43.46-2.88-1-2.27-7.16-7.69-4.28-12.32-3.92-1.87-.77-1.8-2.48-1.91-4.11zm7.46-10.58c-1.12 2.75-2 4.68-2.69 6.69-.44 1.3-1.65 3 0 4a5.77 5.77 0 005.27.07c1.91-1 .13-2.66-.13-3.9a54.06 54.06 0 00-2.45-6.86z" transform="translate(-287.04 -417.89)"/><path class="cls-7" d="M577.23 693.78v-3c0-10.45 2.53-12.43 12.95-10.27 1 .21 2.14.34 2.23 1.56.12 1.68-1.3 1.7-2.42 1.78a33.64 33.64 0 01-4.49 0c-2.77-.18-4.65 0-4.56 3.81.08 3.46 1.4 4.09 4.42 4.16 2.1 0 5.92-1.39 6 1.33.1 3-3.75 1.74-5.7 1.57-4.47-.39-4.72 2-4.71 5.39 0 2 1.53 5.54-1.69 5.65-3.55.11-1.71-3.54-2-5.54a46.49 46.49 0 01-.07-6.47zM669.11 682.05c4.46-3.48 9.07-1.48 13.41 0 3.55 1.22 4.59 4.52 4.52 8.13v4.49c0 9.2-8.44 14.59-16.95 10.83-.49-.21-.73-1-1.08-1.55a3.13 3.13 0 002.06-2h1c4 1.72 7.81 1.47 10.49-2.28 1.72-2.41.62-12.55-1.09-14.21a5.82 5.82 0 00-4-1.57c-1.49-.07-3-.19-4.44-.29-.61-2.3-2.49-1.37-3.92-1.55z" transform="translate(-287.04 -417.89)"/><path class="cls-8" d="M509 698c-2.75-2.1-3.25-6-6.58-8.43-1.14 4.28-.16 8.21-.56 12-.18 1.62.85 4.23-1.9 4.33s-2.11-2.52-2.13-4.15c0-6 .1-11.94.17-17.91 0-1.32-.2-2.85 1.33-3.46 1.84-.72 2.79.8 3.54 2C505.6 686.94 509 691 511 696c-1.36 0-2 .74-2 2z" transform="translate(-287.04 -417.89)"/><path class="cls-5" d="M480.39 438c-.31.37-.56.89-1 1.11-8.69 4.64-10 12.13-9.65 21.29.65 17.44.06 34.92.29 52.38.06 4.35-1.26 7.33-5.06 9.28-.4-1.44-.74-2.9-1.22-4.3-.59-1.74-1.73-4-.1-5.07 2.2-1.36 2.87 1.84 4.41 2.89 1.53-1.7.84-3.61.85-5.31.06-19.47-.07-38.93.15-58.39 0-3-2.59-6.43-1.21-8.09 1.66-2 4.57-3.1 6.27-5.75 1.59-2.4 4.17-3.57 6.27-.04z" transform="translate(-287.04 -417.89)"/><path class="cls-8" d="M550 695.12c0-2.16-.13-4.33 0-6.47.24-3.16-.44-5.22-4.25-4.78-1.28.15-2.9.09-2.67-2 .19-1.61 1.62-1.43 2.72-1.44q6.23-.08 12.46 0c1.15 0 2.53.15 2.54 1.73s-1.47 1.83-2.52 1.66c-4.73-.74-4.53 2.25-4.46 5.43.11 4.49.07 9 0 13.46 0 1.4.29 3.36-2 3.26s-1.83-2-1.87-3.42c.05-2.44.05-4.93.05-7.43z" transform="translate(-287.04 -417.89)"/><path class="cls-3" d="M509 698c.07-1.29.67-2 2-2 2.13 1.85 2.4.44 2.42-1.37 0-3.5 0-7 .06-10.48 0-1.45-.22-3.4 1.81-3.53 2.35-.16 1.78 1.95 1.79 3.3q.1 9.48 0 19c0 1.2.44 2.81-1.53 3.13-1.64.27-2.39-.79-3.08-2-1.14-2.05-2.32-4.05-3.47-6.05zM632.05 702.29c2.54-2.43 2.47-5.61 2.5-8.75 0-3.65 0-7.3.07-10.94 0-1 .41-2 1.67-2.06s1.74.94 1.74 2c0 5.8.31 11.64-.3 17.37-.47 4.44-5.29 6.54-11.76 6l-3.92-2.93 1.21-2.57c.29.41.58.82.86 1.24 2.43 2.71 4.98 4 7.93.64z" transform="translate(-287.04 -417.89)"/><path class="cls-5" d="M463.1 524c-5.35 6.62-10.33 13.48-14 21.21-1.79-2.93-2.14-5.63.73-8.24a4.89 4.89 0 001.15-4.22c-.26-2.7-.17-5 3.65-4.27a1.82 1.82 0 001.82-1.42c1.46-5.76 1.46-5.76 6.65-3.06zM624.85 531.37q-6-6.57-12-13.15c2.56-3 4.38-2.76 6.79.59a32.44 32.44 0 015.21 12.56z" transform="translate(-287.04 -417.89)"/><path class="cls-2" d="M669.11 682.05c1.43.18 3.31-.75 3.87 1.57a1.59 1.59 0 01-.81.45c-1.69.95-1.14 2.6-1.15 4v13.9a3.13 3.13 0 01-2.06 2v-1.86q.06-10 .11-20z" transform="translate(-287.04 -417.89)"/><path class="cls-8" d="M621.07 702.6c-2.7-2.5-1.76-5.79-1.86-8.82-.12-3.61 0-7.23 0-10.84 0-1.22.32-2.34 1.77-2.55 1.18-.17 1.88.34 1.87 1.61-1.83.21-1.73 1.56-1.9 2.92-.72 5.9.37 11.79.12 17.68z" transform="translate(-287.04 -417.89)"/><path class="cls-7" d="M621.07 702.6c.25-5.89-.84-11.78-.12-17.68.17-1.36.07-2.71 1.9-2.92q.21 9.19.41 18.37c-.4.86-.81 1.72-1.21 2.57a4.5 4.5 0 01-.82 0z" transform="translate(-287.04 -417.89)"/><path class="cls-5" d="M493.18 428.15a64.55 64.55 0 01-12.06 9.28c-.68-2.57 1.37-3.74 2.71-5.29 1.17-1.32 2.95-2.14 3.17-4.14z" transform="translate(-287.04 -417.89)"/><path class="cls-8" d="M422.89 696.77c.1 1.63 0 3.34 1.92 4.15a13.87 13.87 0 01-.51 2.42c-.62 1.53-1.33 3.55-3.44 2.58s-1-2.71-.26-4.23.92-3.56 2.29-4.92z" transform="translate(-287.04 -417.89)"/><path class="cls-9" d="M643.42 681.64c1.13 8.08-.15 16.22.67 24.31-2.13-1.66-1.15-4-1.11-6 .12-6.1-.69-12.23.44-18.31z" transform="translate(-287.04 -417.89)"/><path class="cls-7" d="M669.07 682.13q-.06 10-.11 20a92 92 0 01.11-20z" transform="translate(-287.04 -417.89)"/><path class="cls-8" d="M632.05 702.29c-2.95 3.36-5.5 2.07-7.93-.68a10.15 10.15 0 007.93.68z" transform="translate(-287.04 -417.89)"/><path class="cls-5" d="M448.92 546a10.85 10.85 0 01-1.82 5.24c.28-1.86-1.35-4.39 1.82-5.24z" transform="translate(-287.04 -417.89)"/><path class="cls-8" d="M621.23 702.92a4.5 4.5 0 00.82 0l3.92 2.93a4.93 4.93 0 01-4.74-2.93z" transform="translate(-287.04 -417.89)"/><path class="cls-5" d="M481.82 428.36l.71.7a8.32 8.32 0 01-1 .86c-.49.29-.68.09-.42-.41s.44-.75.71-1.15z" transform="translate(-287.04 -417.89)"/><path class="cls-5" d="M480.78 430.84a6 6 0 01-.74.66 5.73 5.73 0 01-.57-.57 8.23 8.23 0 011-.85c.53-.29.7-.08.31.76zM465.73 506.43l.82.35c-.12.27-.18.7-.37.78s-.53-.19-.81-.31zM485.36 427.18l.7-.71a8.32 8.32 0 01.86 1c.29.49.09.68-.41.42a12.51 12.51 0 01-1.15-.71z" transform="translate(-287.04 -417.89)"/><path class="cls-1" d="M622.9 600.89a.86.86 0 011.13-.68z" transform="translate(-287.04 -417.89)"/><path d="M476.77 552.76c0-31.15.1-62.3 0-93.46 0-4.18.76-5.49 5.19-4.58 6.67 1.37 13.49 2 20.24 2.94 6.53.91 7.37.22 7.39-6.22 0-6.67.08-13.33 0-20 0-2.78 1-3.76 3.81-3.76q44.23.1 88.46 0c3.74 0 3.37 2 3.37 4.45v133.94c-15.84-.74-31.55-2.77-47.27-4.81-8.18-1.06-16.48-1.2-24.66-2.3-14.4-1.92-29-2.17-43.3-4.75-4.45-.8-9 .79-13.23-1.45zm62.65-46.84c-10.21.18-21.5 4.89-31.55 12.85-1.55 1.23-4.19 3-1.32 5 2.21 1.59 2.18 3.52 2.37 5.62a27.64 27.64 0 003.38 10.84c2.61 4.81 6.63 6.71 12 6 5.21-.69 7.53-4.07 9-8.74 2.15-7 1.87-14.17 2.11-21.27.16-4.76 2.18-5.82 6.35-5.82 12.06 0 22.21 4.79 31.54 11.89 1.26 1 2.61 2.66 4.24.78 1.81-2.1-.17-3.35-1.54-4.42-9.94-7.75-20.93-12.76-36.58-12.73zm-16.91-21.86a3.13 3.13 0 00-1.69-3.18c-3.11-2.16-2.73-4 0-6.11 1.38-1 2.66-2.54 1.07-4.14s-3.24-.58-4.31.79c-2.7 3.45-5 2.85-7.52-.22-1.14-1.4-2.9-2-4.27-.3-1.24 1.55-.12 2.8 1.16 3.74 3 2.23 3.11 4.29-.07 6.51-1.2.85-2.42 2.1-1.05 3.74s2.68 1.22 3.8-.16c3.09-3.79 5.86-3 8.88.2 1.76 1.82 3.3 1.07 4-.87zm52.46 0c1.7 0 2.61-.25 3.08-1.36a2.4 2.4 0 00-1-3c-3.25-2.4-3.88-4.61 0-7 1.41-.88 2-2.4.59-3.81s-2.94-.71-3.89.47c-2.93 3.66-5.58 3.34-8.35-.13-.93-1.16-2.33-1.56-3.49-.48-1.38 1.27-1.05 2.81.39 3.8 3.52 2.42 3.64 4.69.06 7.12a2.51 2.51 0 00-.92 3.48c.41.81 1.56 1.29 2.1.86 4.08-3.33 8.08-6.01 11.46.04z" transform="translate(-287.04 -417.89)" fill="#fdfcfb"/><path class="cls-11" d="M464 585c-3.6 2.37-5.74 1.81-7.95-2.38-9.05-17.14-6.52-35.93 7.82-51.94 1.55-1.73 2.11-4.71 5.11-5 .07 1.18-.26 2.45.87 3.36v1c-1.74 4.13-1.07 8.52-.68 12.66.7 7.5-1.83 14.55-2.69 21.77-.8 6.78-.83 13.77-2.48 20.53zM613.08 526.37c7.73 5.23 12 13.11 15.29 21.35a36.85 36.85 0 01-1.48 32.21c-1.24-1.07-.8-2.35-.53-3.67 1.42-7 .8-7.77-6.22-8.23s-7.19-.47-7.17-7.81q.03-16.92.11-33.85z" transform="translate(-287.04 -417.89)"/><path class="cls-12" d="M581.74 612.48c.78-7.11 1.59-14.21 2.36-21.31.32-3 1.76-4.56 4.93-4.14 3 .4 6 .55 8.89 1.2a8.27 8.27 0 016.74 6.59c.74 3.5 0 6.92-3.14 8.82-3 1.78-2.95 3.5-1.27 6a21.26 21.26 0 012.35 4.36c.58 1.58.87 3.35-1.35 4.12-1.78.61-3.3.3-4.21-1.5-1.51-3-2.94-6-4.46-8.91-.59-1.14-1-2.73-2.75-2.36-1.44.31-1.23 1.84-1.44 2.9-.33 1.62-.32 3.31-.59 5-.31 1.87-.89 3.81-3.3 3.59s-3.14-2.08-2.76-4.36zM593.65 600c3 .19 5.34-.46 5.05-3.52s-3.27-3.15-5.69-3.51c-3.74-.55-3.37 2.49-3.55 4.51-.36 3.8 2.93 1.86 4.19 2.52zM505 603.47c.78-7.26 1.49-14.18 2.29-21.1.22-1.88 1-4 3.08-4 4.91.19 10.08-.08 14.36 3 4.49 3.21 4.68 10.56 0 13.72-3 2-2.57 3.61-1.24 6 .81 1.44 1.53 2.94 2.23 4.44.83 1.79.44 3.39-1.35 4.18s-3.24 0-4.11-1.73c-1.51-3-3-5.94-4.46-8.89-.52-1-1-2.29-2.42-2.2-1.85.12-1.58 1.88-1.89 3.05a16.51 16.51 0 00-.39 3.45c-.11 2.38 0 5-3.51 4.67-3.37-.27-2.46-2.9-2.59-4.59zm12.55-11.76c2.74-.09 4.65-1.25 4.27-3.91-.49-3.45-3.58-3.39-6.21-3.61-3.38-.28-2.51 2.37-2.68 4.14-.37 3.88 2.93 2.67 4.63 3.38zM553.41 591c-.17 2.67-.43 5.54-2.84 6.7-3.87 1.87-2.56 4.15-1.39 6.82 1.08 2.48 4.77 5.52.81 7.65-4.36 2.34-4.6-2.8-6.17-5.1a35 35 0 01-2.37-4.93c-.58-1.22-1.13-2.52-2.83-2.31-2 .26-1.42 1.92-1.62 3.12-.31 2-.44 4-.9 5.9a2.75 2.75 0 01-3.42 2.15 2.71 2.71 0 01-2.3-3.31c.86-7.77 1.77-15.53 2.61-23.3.2-1.77 1.25-3.09 2.78-3 5.09.29 10.38-.07 14.88 3.1 2.35 1.6 2.59 4.09 2.76 6.51zm-11 3.14c2.49.21 5.07.12 5-3.17s-3.18-3.31-5.54-3.78c-3.16-.63-3.46 1.52-3.7 3.87-.42 3.58 2.17 2.94 4.2 3.06zM579.22 597.25c-.42 3-.67 5.93-1.3 8.83-1.44 6.74-5.93 9.77-12.72 8.8-5.85-.83-9.39-5.24-9.08-11.61a86 86 0 011-9.87c1-6 5.77-9.73 11.61-9.18 7.27.69 10.55 4.78 10.49 13.03zm-6.07-.22c.06-3.6-.13-6.9-4.93-7-4.4-.15-5 2.92-5.28 6.29-.23 2.65-.73 5.27-.83 7.92-.11 2.87 1.28 4.78 4.31 5.08s4.88-1 5.45-3.88.86-5.62 1.28-8.44zM497.25 594.39c-1.32-.11-2.65-.17-4-.34-2.33-.32-3.33.62-3.35 3 0 2 .18 3.65 2.7 3.86 2 .16 4 .41 5.92.72 1.68.26 2.76 1.16 2.47 3a2.49 2.49 0 01-2.86 2.2c-4.13-.32-8.28-.64-12.35-1.36-2.36-.42-2.81-2.58-2.54-4.75.84-6.9 1.8-13.8 2.53-20.72.33-3.19 1.92-4.37 4.94-4 3.29.37 6.6.69 9.88 1.16 1.57.23 2.94 1.11 2.84 2.91-.12 2.15-1.8 2.6-3.58 2.53-1.32-.05-2.63-.36-3.94-.5-2.22-.25-4.25-.48-4.79 2.69s1.43 3.56 3.67 3.88c1 .13 2 .23 3 .37 2 .29 3.66 1 3.28 3.42-.34 2.29-2.13 2.14-3.82 1.93z" transform="translate(-287.04 -417.89)"/><path class="cls-13" d="M478.42 447.63l24.5-18.05c0 6.76-.07 12.34 0 17.91.05 2.68-1.43 3-3.51 2.72z" transform="translate(-287.04 -417.89)"/><path class="cls-1" d="M469.85 529c-1.13-.91-.8-2.18-.87-3.36 2.14.62.77 2.17.87 3.36z" transform="translate(-287.04 -417.89)"/><path class="cls-11" d="M537.14 693.24c0 1.5.06 3 0 4.49-.17 3.69-2.36 5.3-5.85 5.36s-5.63-1.85-6.08-5.27a46.49 46.49 0 01-.1-6.47c0-6 1.18-7.35 6.06-7.35 5.27 0 5.93.79 6.05 7.25v2z" transform="translate(-287.04 -417.89)"/><path class="cls-5" d="M611.26 693.49v4c0 3.69-2.12 5.47-5.6 5.61-3.7.14-6.09-1.73-6.43-5.45a51.56 51.56 0 010-9c.33-4.07 3.09-4.84 6.71-4.76s5.21 1.65 5.29 5.09v4.48z" transform="translate(-287.04 -417.89)"/><path class="cls-14" d="M405.26 688.39c-.54-3 .13-4.9 4-4.63 3.4.23 6.59.51 6.66 4.78s-3.09 5.1-6.74 5.4c-4.56.37-4.07-2.54-3.92-5.55zM430.35 686.19a54.06 54.06 0 012.5 6.85c.26 1.24 2 2.92.13 3.9a5.77 5.77 0 01-5.27-.07c-1.7-1-.49-2.69 0-4 .61-2 1.52-3.93 2.64-6.68z" transform="translate(-287.04 -417.89)"/><path class="cls-5" d="M672.17 684.07a1.59 1.59 0 00.81-.45c1.48.1 2.95.22 4.44.29a5.82 5.82 0 014 1.57c1.71 1.66 2.81 11.8 1.09 14.21-2.68 3.75-6.45 4-10.49 2.28z" transform="translate(-287.04 -417.89)"/><path class="cls-8" d="M672.17 684.07l-.11 17.9h-1c0-4.63-.08-9.27 0-13.9-.06-1.4-.58-3.07 1.11-4z" transform="translate(-287.04 -417.89)"/><path class="cls-3" d="M539.42 505.92c15.65 0 26.64 5 36.56 12.76 1.37 1.07 3.35 2.32 1.54 4.42-1.63 1.88-3 .18-4.24-.78-9.33-7.1-19.48-11.9-31.54-11.89-4.17 0-6.19 1.06-6.35 5.82-.24 7.1 0 14.3-2.11 21.27-1.43 4.67-3.75 8.05-9 8.74-5.39.7-9.41-1.2-12-6a27.64 27.64 0 01-3.38-10.84c-.19-2.1-.16-4-2.37-5.62-2.87-2.07-.23-3.79 1.32-5 10.07-7.99 21.36-12.7 31.57-12.88zm-15.32 17.15c.28 3.85.53 6.33.62 8.83.07 1.72-.2 3.72-2.29 3.79s-2.37-1.89-2.39-3.64c0-3.17.1-6.35-.21-9.49-.16-1.66 1.24-4.77-1.87-4.62-2.52.12-5.07 1.61-5.06 5.07 0 5.41.85 10.6 3.64 15.34a6.67 6.67 0 007.09 3.57c3.16-.4 4.53-2.67 5.19-5.36a86.23 86.23 0 002.18-21.78c0-1 .31-2.84-1.51-2.36-2.56.67-5.87.8-5.44 5a46.44 46.44 0 01.05 5.65z" transform="translate(-287.04 -417.89)"/><path class="cls-4" d="M522.51 484.06c-.7 1.93-2.24 2.69-4 .87-3-3.2-5.79-4-8.88-.2-1.12 1.38-2.56 1.65-3.8.16s-.15-2.89 1.05-3.74c3.18-2.22 3.1-4.28.07-6.51-1.28-.94-2.4-2.19-1.16-3.74 1.37-1.71 3.13-1.1 4.27.3 2.51 3.07 4.82 3.67 7.52.22 1.07-1.37 2.83-2.28 4.31-.79s.31 3.11-1.07 4.14c-2.78 2.07-3.16 4 0 6.11a3.13 3.13 0 011.69 3.18z" transform="translate(-287.04 -417.89)"/><path class="cls-6" d="M575 484.05c-3.35-6.09-7.35-3.37-11.48-.12-.54.43-1.69-.05-2.1-.86a2.51 2.51 0 01.92-3.48c3.58-2.43 3.46-4.7-.06-7.12-1.44-1-1.77-2.53-.39-3.8 1.16-1.08 2.56-.68 3.49.48 2.77 3.47 5.42 3.79 8.35.13.95-1.18 2.51-1.9 3.89-.47s.82 2.93-.59 3.81c-3.87 2.43-3.24 4.64 0 7a2.4 2.4 0 011 3c-.45 1.18-1.36 1.38-3.03 1.43z" transform="translate(-287.04 -417.89)"/><path class="cls-9" d="M593.65 600c-1.26-.65-4.55 1.29-4.19-2.52.18-2-.19-5.06 3.55-4.51 2.42.36 5.39.32 5.69 3.51s-2.07 3.7-5.05 3.52zM517.56 591.71c-1.7-.72-5 .5-4.62-3.38.17-1.77-.7-4.42 2.68-4.14 2.63.22 5.72.16 6.21 3.61.38 2.66-1.53 3.82-4.27 3.91zM542.37 594.12c-2-.15-4.62.52-4.24-3.08.24-2.35.54-4.5 3.7-3.87 2.36.47 5.47.35 5.54 3.78s-2.51 3.38-5 3.17z" transform="translate(-287.04 -417.89)"/><path class="cls-13" d="M573.15 597c-.42 2.79-.73 5.6-1.28 8.36s-2.54 4.17-5.45 3.88-4.42-2.21-4.31-5.08c.1-2.65.6-5.27.83-7.92.29-3.37.88-6.44 5.28-6.29 4.78.18 4.99 3.48 4.93 7.05z" transform="translate(-287.04 -417.89)"/><path class="cls-9" d="M524.1 523.07a46.44 46.44 0 000-5.63c-.43-4.22 2.88-4.35 5.44-5 1.82-.48 1.5 1.31 1.51 2.36a86.23 86.23 0 01-2.19 21.78c-.66 2.69-2 5-5.19 5.36a6.67 6.67 0 01-7.09-3.57c-2.79-4.74-3.61-9.93-3.64-15.34 0-3.46 2.54-5 5.06-5.07 3.11-.15 1.71 3 1.87 4.62.31 3.14.17 6.32.21 9.49 0 1.75.2 3.72 2.39 3.64s2.36-2.07 2.29-3.79c-.13-2.52-.38-5-.66-8.85z" transform="translate(-287.04 -417.89)"/></svg>